# xmcd
#
# Track frame offsets: 
#        150
#        10387
#        22805
#        35740
#        47070
#        59752
#        68817
#        81730
#        90892
#        101270
#        111430
#        125412
#        138677
#        160462
#        171955
#        183047
#        196290
#        209767
#        220652
#        233700
#
# Disc length: 3283 seconds
#
# Revision: 7
# Processed by: cddbd v1.5.2PL0 Copyright (c) Steve Scherf et al.
# Submitted via: ExactAudioCopy v0.90b4
#
DISCID=210cd114
DTITLE=Little Walter - Blues with a Feelin' -  Chess Collectibles Volu
DTITLE=me Three [CD2]
DYEAR=1997
DGENRE=Blues
TTITLE0=Temperature (Alternate)
TTITLE1=Shake Dancer
TTITLE2=Ah'w Baby (Alternate)
TTITLE3=Rock Bottom (Alternate)
TTITLE4=You Gonna Be Sorry (Someday Baby)
TTITLE5=Baby
TTITLE6=My Baby Is Sweeter (Alternate)
TTITLE7=Crazy Mixed Up World (Alternate)
TTITLE8=Worried Life Blues
TTITLE9=Everything's Gonna Be Alright (Alternate)
TTITLE10=Mean Old Frisco (Alternate)
TTITLE11=One of These Mornings
TTITLE12=Blue and Lonesome (Alternate)
TTITLE13=Me and Piney Brown
TTITLE14=Break It Up
TTITLE15=Going Down Slow
TTITLE16=You're Sweet
TTITLE17=You Don't Know
TTITLE18=I'm a Businessman
TTITLE19=Chicken Shack
EXTD=
EXTT0=
EXTT1=
EXTT2=
EXTT3=
EXTT4=
EXTT5=
EXTT6=
EXTT7=
EXTT8=
EXTT9=
EXTT10=
EXTT11=
EXTT12=
EXTT13=
EXTT14=
EXTT15=
EXTT16=
EXTT17=
EXTT18=
EXTT19=
PLAYORDER=
